<svg width="25" height="24" viewBox="0 0 25 24" fill="none" xmlns="http://www.w3.org/2000/svg">
<path fill-rule="evenodd" clip-rule="evenodd" d="M0.0750735 2.00509C0.0750735 1.47331 0.286324 0.963308 0.662351 0.58728C1.03838 0.211253 1.54838 2.67307e-06 2.08016 2.67307e-06H22.0678C22.3313 -0.000427747 22.5924 0.0511258 22.836 0.151712C23.0795 0.252298 23.3009 0.399941 23.4873 0.586188C23.6738 0.772435 23.8217 0.993628 23.9225 1.2371C24.0234 1.48058 24.0752 1.74156 24.0751 2.00509V21.9927C24.0754 22.2563 24.0237 22.5174 23.923 22.761C23.8223 23.0046 23.6745 23.2259 23.4882 23.4123C23.3018 23.5988 23.0806 23.7466 22.837 23.8475C22.5935 23.9483 22.3325 24.0001 22.0689 24H2.08016C1.81676 24 1.55594 23.9481 1.3126 23.8473C1.06926 23.7464 0.848169 23.5986 0.661965 23.4123C0.475761 23.226 0.32809 23.0049 0.227389 22.7615C0.126688 22.5181 0.0749302 22.2572 0.0750735 21.9938V2.00509ZM9.57471 9.15055H12.8245V10.7825C13.2936 9.84437 14.4936 9 16.2969 9C19.754 9 20.5733 10.8687 20.5733 14.2975V20.6487H17.0747V15.0785C17.0747 13.1258 16.6056 12.024 15.4143 12.024C13.7616 12.024 13.0743 13.212 13.0743 15.0785V20.6487H9.57471V9.15055ZM3.57471 20.4993H7.07435V9H3.57471V20.4982V20.4993ZM7.57507 5.24946C7.58167 5.5491 7.52835 5.84704 7.41824 6.1258C7.30814 6.40456 7.14346 6.65851 6.93387 6.87277C6.72429 7.08702 6.47402 7.25725 6.19775 7.37346C5.92149 7.48968 5.62479 7.54955 5.32507 7.54955C5.02536 7.54955 4.72866 7.48968 4.4524 7.37346C4.17613 7.25725 3.92586 7.08702 3.71628 6.87277C3.50669 6.65851 3.34201 6.40456 3.2319 6.1258C3.12179 5.84704 3.06848 5.5491 3.07507 5.24946C3.08803 4.6613 3.33077 4.10159 3.75131 3.69021C4.17186 3.27882 4.73677 3.04846 5.32507 3.04846C5.91338 3.04846 6.47829 3.27882 6.89884 3.69021C7.31938 4.10159 7.56212 4.6613 7.57507 5.24946V5.24946Z" fill="white"/>
</svg>
